#!OML:ASF H:\Dans Jumps\Project 1\Capture day 1\Session 1\subject.ASF
:FULLY-SPECIFIED
:DEGREES
743
root 0.553196 17.7147 2.40071 5.42367 -0.740056 -1.66432
lowerback -0.944736 -0.372521 -0.0944389
upperback 3.01016 -0.549528 1.7127
thorax 3.6427 -0.304255 1.7937
lowerneck -12.2484 0.353722 -1.7474
upperneck 37.3305 0.659551 0.930941
head 15.0268 0.154356 0.806214
rclavicle 1.04362e-015 -1.98785e-015
rhumerus -26.2818 -16.2043 -79.6793
rradius 23.9038
rwrist 33.7389
rhand -18.5391 -26.3441
rfingers 7.12502
rthumb 7.75004 -56.1821
lclavicle 1.04362e-015 -1.98785e-015
lhumerus -22.0248 -2.5118 88.9665
lradius 18.4829
lwrist 3.43096
lhand -24.1013 -3.27549
lfingers 7.12502
lthumb 2.37955 26.691
rfemur -14.9843 -2.56857 19.9117
rtibia 21.9882
rfoot -11.1459 -2.41477
rtoes 13.4814
lfemur -13.4939 7.96064 -17.519
ltibia 19.3226
lfoot -8.64133 4.49029
ltoes -1.56388
744
root 0.552775 17.7148 2.40183 5.43696 -0.730188 -1.66425
lowerback -0.961411 -0.374546 -0.0884691
upperback 3.01659 -0.552592 1.71105
thorax 3.65882 -0.305675 1.78844
lowerneck -12.2648 0.35555 -1.7302
upperneck 37.3505 0.663251 0.91638
head 15.0405 0.156205 0.797942
rclavicle 5.36719e-015 -5.96354e-015
rhumerus -26.3482 -16.287 -79.6269
rradius 23.8814
rwrist 33.7748
rhand -18.5181 -26.2705
rfingers 7.12502
rthumb 7.7703 -56.1078
lclavicle 5.36719e-015 -5.96354e-015
lhumerus -22.0387 -2.41911 88.9393
lradius 18.3925
lwrist 3.34178
lhand -24.0822 -3.24771
lfingers 7.12502
lthumb 2.39795 26.7186
rfemur -14.9959 -2.57736 19.9145
rtibia 21.9903
rfoot -11.1478 -2.41862
rtoes 13.4694
lfemur -13.5086 7.95569 -17.519
ltibia 19.3258
lfoot -8.64385 4.48754
ltoes -1.57233
745
root 0.552297 17.7149 2.40289 5.45066 -0.720873 -1.66238
lowerback -0.975482 -0.376952 -0.0852318
upperback 3.02087 -0.55602 1.70904
thorax 3.67128 -0.307325 1.78434
lowerneck -12.2768 0.357346 -1.71684
upperneck 37.371 0.6666 0.905256
head 15.0534 0.157822 0.791712
rclavicle -3.52843e-015 1.72943e-014
rhumerus -26.4114 -16.3456 -79.5847
rradius 23.8681
rwrist 33.7907
rhand -18.4897 -26.2119
rfingers 7.12502
rthumb 7.79774 -56.0481
lclavicle -3.52843e-015 1.72943e-014
lhumerus -22.0536 -2.35159 88.9174
lradius 18.3155
lwrist 3.28115
lhand -24.0682 -3.21081
lfingers 7.12502
lthumb 2.41146 26.7553
rfemur -15.0075 -2.58507 19.9155
rtibia 21.991
rfoot -11.1481 -2.42346
rtoes 13.4592
lfemur -13.5252 7.94897 -17.5206
ltibia 19.3323
lfoot -8.64766 4.48676
ltoes -1.57306
746
root 0.551729 17.715 2.40371 5.47127 -0.710015 -1.6715
lowerback -0.992161 -0.37868 -0.0689161
upperback 3.02037 -0.5589 1.70782
thorax 3.68011 -0.308292 1.77371
lowerneck -12.29 0.358534 -1.69458
upperneck 37.4027 0.668226 0.889549
head 15.0722 0.15924 0.781814
rclavicle -1.98785e-015 -1.19271e-015
rhumerus -26.4725 -16.4031 -79.547
rradius 23.8585
rwrist 33.8055
rhand -18.4457 -26.1269
rfingers 7.12502
rthumb 7.84016 -55.9615
lclavicle -1.98785e-015 -1.19271e-015
lhumerus -22.066 -2.29606 88.8953
lradius 18.2441
lwrist 3.22346
lhand -24.0579 -3.17494
lfingers 7.12502
lthumb 2.42147 26.7911
rfemur -15.0274 -2.58826 19.9295
rtibia 21.9926
rfoot -11.1478 -2.43239
rtoes 13.4515
lfemur -13.551 7.94319 -17.5104
ltibia 19.3391
lfoot -8.64945 4.48434
ltoes -1.57074
747
root 0.551172 17.715 2.40472 5.48291 -0.70547 -1.67592
lowerback -1.00056 -0.37969 -0.0603573
upperback 3.02107 -0.560567 1.70734
thorax 3.68555 -0.308887 1.7683
lowerneck -12.2886 0.359352 -1.6883
upperneck 37.4234 0.669787 0.883882
head 15.082 0.15984 0.778763
rclavicle -4.57205e-015 7.7526e-015
rhumerus -26.5263 -16.4392 -79.519
rradius 23.8512
rwrist 33.809
rhand -18.4165 -26.1033
rfingers 7.12502
rthumb 7.86832 -55.9369
lclavicle -4.57205e-015 7.7526e-015
lhumerus -22.085 -2.24762 88.8775
lradius 18.192
lwrist 3.17446
lhand -24.058 -3.15918
lfingers 7.12502
lthumb 2.42133 26.8068
rfemur -15.0385 -2.58821 19.9372
rtibia 21.9966
rfoot -11.1505 -2.43805
rtoes 13.4418
lfemur -13.5635 7.94003 -17.5044
ltibia 19.3439
lfoot -8.65292 4.48489
ltoes -1.56927
748
root 0.550566 17.715 2.40584 5.48854 -0.704473 -1.67024
lowerback -1.00442 -0.381853 -0.0636402
upperback 3.02256 -0.563349 1.70515
thorax 3.68937 -0.310355 1.76775
lowerneck -12.2721 0.360682 -1.69354
upperneck 37.4333 0.672248 0.885668
head 15.0829 0.160286 0.780836
rclavicle -1.17283e-014 1.5704e-014
rhumerus -26.5709 -16.4614 -79.5001
rradius 23.8432
rwrist 33.8181
rhand -18.4032 -26.1199
rfingers 7.12502
rthumb 7.88116 -55.953
lclavicle -1.17283e-014 1.5704e-014
lhumerus -22.1088 -2.20793 88.8619
lradius 18.1599
lwrist 3.14295
lhand -24.0551 -3.14962
lfingers 7.12502
lthumb 2.42419 26.8164
rfemur -15.0442 -2.5875 19.9332
rtibia 22.0039
rfoot -11.1571 -2.44147
rtoes 13.4301
lfemur -13.5652 7.9365 -17.5085
ltibia 19.344
lfoot -8.65664 4.48765
ltoes -1.56198
